<?xml version="1.0" standalone="no"?><!DOCTYPE svg PUBLIC "-//W3C//DTD SVG 1.1//EN" "http://www.w3.org/Graphics/SVG/1.1/DTD/svg11.dtd"><svg t="1748593129546" class="icon" viewBox="0 0 1024 1024" version="1.1" xmlns="http://www.w3.org/2000/svg" p-id="9131" xmlns:xlink="http://www.w3.org/1999/xlink" width="200" height="200"><path d="M56.888889 409.6m56.888889 0l853.333333 0q56.888889 0 56.888889 56.888889l0 0q0 56.888889-56.888889 56.888889l-853.333333 0q-56.888889 0-56.888889-56.888889l0 0q0-56.888889 56.888889-56.888889Z" fill="#181F4D" p-id="9132"></path><path d="M0.023587 471.004264m40.226519-40.226519l333.63875-333.63875q40.226519-40.226519 80.453038 0l0 0q40.226519 40.226519 0 80.453038l-333.63875 333.63875q-40.226519 40.226519-80.453038 0l0 0q-40.226519-40.226519 0-80.453038Z" fill="#181F4D" p-id="9133"></path><path d="M80.476625 398.245809m40.226519 40.226519l333.63875 333.63875q40.226519 40.226519 0 80.453038l0 0q-40.226519 40.226519-80.453038 0l-333.63875-333.638749q-40.226519-40.226519 0-80.453039l0 0q40.226519-40.226519 80.453038 0Z" fill="#181F4D" p-id="9134"></path></svg>