<?xml version="1.0" standalone="no"?><!DOCTYPE svg PUBLIC "-//W3C//DTD SVG 1.1//EN" "http://www.w3.org/Graphics/SVG/1.1/DTD/svg11.dtd"><svg t="1746608254802" class="icon" viewBox="0 0 1024 1024" version="1.1" xmlns="http://www.w3.org/2000/svg" p-id="18443" xmlns:xlink="http://www.w3.org/1999/xlink" width="200" height="200"><path d="M509.744608 1.749873c108.544 0 189.893671 14.997063 244.061974 44.99119l4.108962 2.333165a103.696203 103.696203 0 0 1 51.355545 84.642025c3.538633 74.181671 6.286582 140.015797 8.25681 197.489418 94.104304 93.533975 143.515544 157.462684 148.285569 191.773164 4.199696 30.331139-1.788759 54.894177-17.952405 73.715038a12.962025 12.962025 0 0 1-18.406076 1.270279l-1.140658-1.15362-107.299645-121.635646c0.116658 11.212152 0.168506 21.815089 0.168506 31.795848 0 23.798278-0.324051 53.273924-0.985114 88.401013 83.812456 84.914228 127.93519 143.541468 132.433013 175.881721 4.199696 30.331139-1.788759 54.894177-17.952405 73.702076a12.962025 12.962025 0 0 1-18.406076 1.270279l-1.140659-1.15362-98.381772-111.55119c-1.361013 45.937418-3.020152 97.124456-4.977418 153.561114a129.620253 129.620253 0 0 1-129.542481 125.109468h-345.308354a129.620253 129.620253 0 0 1-129.542481-124.837266c-2.073924-56.229266-3.784911-107.442228-5.107038-153.6L104.085063 845.059241a12.962025 12.962025 0 0 1-19.546734-0.129621c-16.176608-18.794937-22.165063-43.370937-17.952405-73.689114 4.484861-32.366177 48.698329-91.058228 132.614481-176.076152-0.259241-19.235646-0.388861-36.902886-0.414785-53.027645v-5.301468c0-19.028253 0.168506-39.936 0.505519-62.723241l-108.232911 122.68557a12.962025 12.962025 0 0 1-19.546734-0.129621C55.347848 577.898937 49.359392 553.322937 53.572051 522.991797c4.770025-34.427139 54.518278-98.679899 149.244759-192.745316 1.788759-55.296 4.147848-117.085975 7.10319-185.395848l0.479595-10.810329a103.696203 103.696203 0 0 1 51.537013-85.160507C316.066025 17.47281 398.685975 1.762835 509.744608 1.762835z m-124.020659 772.173773a12.962025 12.962025 0 0 0-10.17519 3.979341l-46.624405 48.737216a12.962025 12.962025 0 0 0 5.936608 21.452151c41.828456 11.45843 102.27038 17.187646 181.338734 17.187646 78.679494 0 138.914025-5.677367 180.716557-17.019139a12.962025 12.962025 0 0 0 5.742177-21.698431l-49.190886-48.892759a12.962025 12.962025 0 0 0-9.980759-3.733063c-53.533165 3.486785-95.957873 5.236658-127.287089 5.236658-31.342177 0-74.829772-1.749873-130.475747-5.24962zM733.132152 590.316557h-70.85043a12.962025 12.962025 0 0 0-12.962026 12.962025v108.258836a12.962025 12.962025 0 0 0 5.573671 10.62886l70.85043 49.229773a12.962025 12.962025 0 0 0 20.35038-10.641823V603.278582a12.962025 12.962025 0 0 0-12.962025-12.962025z m-369.288101 0h-70.863393a12.962025 12.962025 0 0 0-12.962025 12.962025v157.475646a12.962025 12.962025 0 0 0 20.35038 10.641823l70.863392-49.21681a12.962025 12.962025 0 0 0 5.573671-10.641823v-108.258836a12.962025 12.962025 0 0 0-12.962025-12.962025z m378.128202-194.093367a12.962025 12.962025 0 0 0-18.328304 0.648101l-64.200911 68.945013a12.962025 12.962025 0 0 0-3.473823 8.827139v57.914329a12.962025 12.962025 0 0 0 12.962026 12.962025h64.200911a12.962025 12.962025 0 0 0 12.962025-12.962025V405.711392a12.962025 12.962025 0 0 0-4.121924-9.488202z m-451.182177 0a12.962025 12.962025 0 0 0-4.121924 9.488202v126.84638a12.962025 12.962025 0 0 0 12.962025 12.962025h64.200912a12.962025 12.962025 0 0 0 12.962025-12.962025v-57.914329a12.962025 12.962025 0 0 0-3.473823-8.827139l-64.200911-68.932051a12.962025 12.962025 0 0 0-18.328304-0.648101z m225.40962-135.323544c-85.18643 0-148.752203 11.782481-190.710278 35.360405a12.962025 12.962025 0 0 0-5.05519 17.446886l55.127494 102.205569a12.962025 12.962025 0 0 0 12.832405 6.740253c54.362734-6.01438 96.955949-9.008608 127.805569-9.008607 30.797772 0 72.328101 2.994228 124.616912 8.982683a12.962025 12.962025 0 0 0 12.74167-6.481012l58.030988-102.322228 0.038886-0.06481a12.962025 12.962025 0 0 0-4.977418-17.628355c-41.958076-23.500152-105.446076-35.243747-190.451038-35.243746z" fill="#999999" p-id="18444"></path></svg>