<?xml version="1.0" standalone="no"?><!DOCTYPE svg PUBLIC "-//W3C//DTD SVG 1.1//EN" "http://www.w3.org/Graphics/SVG/1.1/DTD/svg11.dtd"><svg t="1746608330550" class="icon" viewBox="0 0 1156 1024" version="1.1" xmlns="http://www.w3.org/2000/svg" p-id="19457" xmlns:xlink="http://www.w3.org/1999/xlink" width="225.78125" height="200"><path d="M445.308718 0 460.012308 0 274.642051 14.178462C369.690256 14.966154 560.049231 17.066667 655.097436 17.854359L697.895385 40.96C696.057436 152.812308 698.420513 264.664615 699.995897 376.254359 742.531282 393.058462 796.619487 399.097436 821.825641 442.157949 875.388718 563.987692 803.18359 711.548718 881.952821 824.451282 905.321026 824.451282 951.794872 823.926154 974.900513 823.66359 1010.609231 673.739487 996.693333 518.038974 989.341538 365.489231 985.928205 293.546667 957.046154 221.866667 906.108718 170.404103 852.283077 129.181538 791.368205 97.673846 740.430769 51.987692 756.184615 39.122051 787.954872 13.128205 803.708718 0L819.462564 0C958.09641 67.21641 1086.227692 169.878974 1155.282051 310.088205L1155.282051 320.590769C1140.315897 324.266667 1110.646154 331.618462 1095.68 335.294359 1103.031795 476.81641 1125.087179 617.550769 1118.785641 759.597949 1119.573333 805.546667 1085.177436 840.730256 1053.407179 869.612308 963.872821 949.169231 791.893333 916.086154 754.871795 796.882051 748.045128 691.331282 755.134359 585.517949 753.29641 479.704615 740.693333 478.916923 714.962051 477.341538 702.358974 476.291282 699.208205 622.276923 698.420513 768.262564 696.845128 913.985641 714.699487 914.773333 750.670769 915.82359 768.525128 916.611282 769.050256 952.32 769.312821 988.028718 769.575385 1024L0 1024 0 926.326154C16.541538 924.750769 49.887179 921.862564 66.428718 920.549744 72.205128 655.622564 72.992821 390.695385 74.305641 125.505641 71.942564 88.746667 89.796923 55.401026 101.874872 22.055385 187.733333 16.541538 359.450256 5.513846 445.308718 0M181.431795 92.947692C180.381538 153.6 180.118974 213.989744 180.906667 274.642051 320.065641 274.904615 459.487179 275.429744 598.646154 274.379487 598.38359 213.989744 598.38359 153.6 598.908718 93.210256 459.749744 92.16 320.590769 92.422564 181.431795 92.947692Z" fill="#161719" opacity="1.00" p-id="19458"></path></svg>