<?xml version="1.0" standalone="no"?><!DOCTYPE svg PUBLIC "-//W3C//DTD SVG 1.1//EN" "http://www.w3.org/Graphics/SVG/1.1/DTD/svg11.dtd"><svg t="1744871108884" class="icon" viewBox="0 0 1024 1024" version="1.1" xmlns="http://www.w3.org/2000/svg" p-id="6567" xmlns:xlink="http://www.w3.org/1999/xlink" width="200" height="200"><path d="M512 115.2a497.664 497.664 0 0 1 352.3072 145.5616l0.6656 0.6656 0.6656 0.6656A497.664 497.664 0 0 1 1011.2 614.4a496.9984 496.9984 0 0 1-84.1216 277.4528l-11.4176 16.9984H108.3392l-11.4176-16.9984A496.9984 496.9984 0 0 1 12.8 614.4a497.664 497.664 0 0 1 145.5616-352.3072l0.6656-0.6656 0.6656-0.6656A497.664 497.664 0 0 1 512 115.2z m-38.4 78.5408A420.5056 420.5056 0 0 0 241.7152 289.792l45.1584 45.2096A38.4 38.4 0 0 1 236.544 392.704l-3.8912-3.4304-45.2096-45.1584a420.5056 420.5056 0 0 0-96.0512 231.936l63.8976-0.0512a38.4 38.4 0 0 1 5.2224 76.4416l-5.2224 0.3584H91.3408A419.3792 419.3792 0 0 0 143.36 820.9408l6.5536 11.1616H873.984l6.6048-11.1616a419.3792 419.3792 0 0 0 52.0704-168.0384l-63.8976-0.0512a38.4 38.4 0 0 1-5.2224-76.4416l5.2224-0.3584h63.8976a420.5056 420.5056 0 0 0-96.0512-231.8848l-45.2096 45.1584a38.4 38.4 0 0 1-57.7024-50.3808l3.4304-3.8912 45.1584-45.2096a420.5056 420.5056 0 0 0-231.8336-96.0512l-0.0512 63.8976a38.4 38.4 0 0 1-76.4416 5.2224l-0.3584-5.2224z m211.456 229.8368c11.6736-7.7824 25.5488 6.0928 17.8176 17.7152l-131.84 197.888a64 64 0 1 1-104.2944-70.0416c6.0416-5.9904 13.056-10.752 18.5856-12.6976z" fill="#1296db" p-id="6568"></path></svg>