<?xml version="1.0" standalone="no"?><!DOCTYPE svg PUBLIC "-//W3C//DTD SVG 1.1//EN" "http://www.w3.org/Graphics/SVG/1.1/DTD/svg11.dtd"><svg t="1747628054221" class="icon" viewBox="0 0 1024 1024" version="1.1" xmlns="http://www.w3.org/2000/svg" p-id="9284" xmlns:xlink="http://www.w3.org/1999/xlink" width="200" height="200"><path d="M907.567104 153.76384c-45.592576-47.058944-109.056-74.047488-174.112768-74.047488-16.494592 0-32.833536 1.7408-48.553984 5.177344-89.235456 19.488768-144.355328 85.663744-170.770432 126.644224-26.411008-40.98048-81.53088-107.155456-170.766336-126.644224-15.724544-3.436544-32.059392-5.177344-48.553984-5.177344-65.06496 0-128.528384 26.988544-174.12096 74.043392-37.818368 39.03488-82.096128 110.985216-78.258176 232.091648 7.467008 236.048384 308.477952 492.99456 462.29504 559.960064 2.822144 1.449984 6.008832 2.260992 9.355264 2.260992l0.106496 0c0.028672 0 0.06144 0 0.08192 0 3.54304 0 6.873088-0.90112 9.777152-2.47808 153.976832-67.309568 454.336512-323.956736 461.795328-559.73888C989.667328 264.749056 945.389568 192.79872 907.567104 153.76384z" fill="#ED1C24" p-id="9285"></path></svg>