<?xml version="1.0" standalone="no"?><!DOCTYPE svg PUBLIC "-//W3C//DTD SVG 1.1//EN" "http://www.w3.org/Graphics/SVG/1.1/DTD/svg11.dtd"><svg t="1744734835718" class="icon" viewBox="0 0 1024 1024" version="1.1" xmlns="http://www.w3.org/2000/svg" p-id="6963" xmlns:xlink="http://www.w3.org/1999/xlink" width="200" height="200"><path d="M449.711 281.365c15.217-47.058 61.44-78.077 110.859-72.873C768.72 230.519 927.56 356.797 927.56 512c0 155.182-158.86 281.48-367.054 303.486-51.006 5.374-98.583-27.846-112.17-77.421A852.186 852.186 0 0 1 417.921 512c0-71.941 8.974-142.782 26.52-211.38l3.872-14.663 1.375-4.613 0.022 0.021z m70.666 56.75a718.793 718.793 0 0 0-22.412 178.38c0 65.385 8.777 129.666 25.942 191.717 5.013 18.202 22.587 30.396 40.805 28.496 165.267-17.37 285.906-112.704 285.906-220.213 0-107.51-120.62-202.845-285.906-220.214-18.218-1.9-35.792 10.294-40.805 28.496l-3.53 13.337z m-412.09 16.642c-8.766 0-15.873 7.105-15.873 15.87 0 8.763 7.107 15.868 15.873 15.868l275.095-70.513c8.766 0 15.873-7.105 15.873-15.87 0-8.764-7.107-15.869-15.873-15.869l-275.095 70.514z m247.835 33.145L108.31 458.415c-8.767 0-15.873 7.105-15.873 15.87 0 8.764 7.106 15.87 15.873 15.87l247.834-70.514c8.767 0 15.873-7.105 15.873-15.87 0-8.764-7.106-15.869-15.873-15.869h-0.02z m-247.835 174.13c-8.766 0-15.873 7.104-15.873 15.869 0 8.764 7.107 15.87 15.873 15.87l242.565-70.514c8.766 0 15.873-7.105 15.873-15.87 0-8.764-7.107-15.869-15.873-15.869l-242.565 70.513z m247.835 33.124L108.31 665.67c-8.767 0-15.873 7.105-15.873 15.869s7.106 15.87 15.873 15.87l247.834-70.514c8.767 0 15.873-7.105 15.873-15.87 0-8.764-7.106-15.869-15.873-15.869h-0.02zM108.287 769.33c-8.766 0-15.873 7.105-15.873 15.87 0 8.764 7.107 15.869 15.873 15.869l275.095-70.514c8.766 0 15.873-7.105 15.873-15.87 0-8.763-7.107-15.868-15.873-15.868l-275.095 70.513z" fill="#1DFF3D" p-id="6964"></path></svg>