<?xml version="1.0" standalone="no"?><!DOCTYPE svg PUBLIC "-//W3C//DTD SVG 1.1//EN" "http://www.w3.org/Graphics/SVG/1.1/DTD/svg11.dtd"><svg t="1745026773195" class="icon" viewBox="0 0 1024 1024" version="1.1" xmlns="http://www.w3.org/2000/svg" p-id="9327" xmlns:xlink="http://www.w3.org/1999/xlink" width="200" height="200"><path d="M966.2 300.1L790.9 124.8c-13.1-13.1-31.2-19.8-49.7-18.3-1.7-0.1-3.4-0.2-5.1-0.2h-93.4l-6.5 3.6c-34.6 19.3-78.8 29.9-124.4 29.9-45.6 0-89.7-10.6-124.3-29.9l-6.6-3.6h-93.4c-23.5-0.1-45.2 12.9-56.3 33.6L57.8 313.2c-12 12-18.6 27.9-18.6 44.8s6.6 32.8 18.6 44.8l126.6 126.6c10.5 10.5 24.3 17 39 18.3v306.1c0 35.3 28.7 64 64 64h448.7c35.3 0 64-28.7 64-64V534.7c14.9-1.2 28.9-7.7 39.5-18.3l126.7-126.7c24.6-24.7 24.6-64.9-0.1-89.6z m-40.9 48.8L798.7 475.5c-1 1-2.4 1.6-3.9 1.6-1 0-2.5-0.3-3.8-1.5l-48.8-46v424.2c0 3.4-2.8 6.1-6.1 6.1H287.4c-1.6 0-3.2-0.6-4.3-1.8-1.2-1.2-1.8-2.7-1.8-4.3V444.7l-48.4 44c-1.3 1.2-2.8 1.4-3.7 1.4-1.5 0-2.8-0.6-3.9-1.6L98.7 361.9c-1.3-1.3-1.6-2.9-1.6-3.9 0-1.1 0.3-2.6 1.6-3.9l175-175 5.6-5 2.5-6.2c0.9-2.3 3.2-3.8 5.7-3.8h78.7c42.3 21.9 92.5 33.5 145.7 33.5 53.2 0 103.4-11.6 145.7-33.5h78.6c0.3 0 0.6 0.1 0.9 0.1l4.1 0.6 4.1-0.6c1.3-0.2 3.1-0.2 4.7 1.5L925.4 341c2.1 2.2 2.1 5.7-0.1 7.9z m0 0" fill="#0C0C0C" p-id="9328"></path></svg>